# xmcd
#
# Track frame offsets:
#	150
#	15920
#	33529
#	46547
#	54719
#	87462
#	104989
#	130452
#	142064
#	143940
#	161895
#	180974
#	195207
#	221390
#	237990
#
# Disc length: 3328 seconds
#
# Revision: 1
# Processed by: cddbd v1.5.2PL0 Copyright (c) Steve Scherf et al.
# Submitted via: audiograbber 1.83.01
#
DISCID=d40cfe0f
DTITLE=Boogie Radio - Roughmix
DYEAR=2008
DGENRE=Blues
TTITLE0=Something To Say
TTITLE1=Love Me Or Leave Me
TTITLE2=Heaven's Cent
TTITLE3=Boppin' Boogie
TTITLE4=Five Past Twelve Blues
TTITLE5=Step Aside
TTITLE6=John, Jim and Jack
TTITLE7=Blow Wind Blow
TTITLE8=Birthday Party I
TTITLE9=Birthday Party II
TTITLE10=If I Needed You
TTITLE11=You Came A Long Way From St. Louis
TTITLE12=Soul Serenade
TTITLE13=Lonely Lonely Nights
TTITLE14=I Don't Like It
EXTD=
EXTT0=
EXTT1=
EXTT2=
EXTT3=
EXTT4=
EXTT5=
EXTT6=
EXTT7=
EXTT8=
EXTT9=
EXTT10=
EXTT11=
EXTT12=
EXTT13=
EXTT14=
PLAYORDER=
